<svg width="961" height="150" viewBox="0 0 961 150" fill="none" xmlns="http://www.w3.org/2000/svg">
<g opacity="0.5">
<mask id="path-1-outside-1_14065_2723" maskUnits="userSpaceOnUse" x="-47" y="-1" width="1009" height="152" fill="black">
<rect fill="white" x="-47" y="-1" width="1009" height="152"/>
<path d="M91.1705 57.0909H51.1136C50.8295 53.7765 50.072 50.7699 48.8409 48.071C47.6572 45.3722 46 43.0521 43.8693 41.1108C41.786 39.1222 39.2528 37.607 36.2699 36.5653C33.2869 35.4763 29.9015 34.9318 26.1136 34.9318C19.4848 34.9318 13.8741 36.5417 9.28125 39.7614C4.7358 42.9811 1.27936 47.5975 -1.08807 53.6108C-3.40814 59.6241 -4.56818 66.8447 -4.56818 75.2727C-4.56818 84.1742 -3.38447 91.6316 -1.01704 97.6449C1.39773 103.611 4.87784 108.109 9.4233 111.139C13.9688 114.122 19.4375 115.614 25.8295 115.614C29.4754 115.614 32.7424 115.164 35.6307 114.264C38.5189 113.317 41.0284 111.968 43.1591 110.216C45.2898 108.464 47.018 106.357 48.3438 103.895C49.7169 101.385 50.6402 98.5682 51.1136 95.4432L91.1705 95.7273C90.697 101.883 88.9688 108.156 85.9858 114.548C83.0028 120.893 78.7652 126.764 73.2727 132.162C67.8277 137.512 61.0805 141.821 53.0312 145.088C44.982 148.355 35.6307 149.989 24.9773 149.989C11.625 149.989 -0.354167 147.124 -10.9602 141.395C-21.5189 135.666 -29.8759 127.238 -36.0312 116.111C-42.1392 104.984 -45.1932 91.3712 -45.1932 75.2727C-45.1932 59.0795 -42.0682 45.4432 -35.8182 34.3636C-29.5682 23.2367 -21.1402 14.8324 -10.5341 9.15056C0.0719698 3.4214 11.9091 0.556813 24.9773 0.556813C34.1629 0.556813 42.6146 1.81155 50.3324 4.32101C58.0502 6.83049 64.821 10.5 70.6449 15.3295C76.4688 20.1117 81.1563 26.0066 84.7074 33.0142C88.2585 40.0218 90.4129 48.0473 91.1705 57.0909ZM249.995 75.2727C249.995 91.4659 246.846 105.126 240.549 116.253C234.252 127.332 225.753 135.737 215.052 141.466C204.351 147.148 192.419 149.989 179.256 149.989C165.999 149.989 154.02 147.124 143.319 141.395C132.665 135.618 124.19 127.19 117.893 116.111C111.643 104.984 108.518 91.3712 108.518 75.2727C108.518 59.0795 111.643 45.4432 117.893 34.3636C124.19 23.2367 132.665 14.8324 143.319 9.15056C154.02 3.4214 165.999 0.556813 179.256 0.556813C192.419 0.556813 204.351 3.4214 215.052 9.15056C225.753 14.8324 234.252 23.2367 240.549 34.3636C246.846 45.4432 249.995 59.0795 249.995 75.2727ZM209.37 75.2727C209.37 66.5606 208.21 59.2216 205.89 53.2557C203.617 47.2424 200.232 42.697 195.734 39.6193C191.283 36.4943 185.79 34.9318 179.256 34.9318C172.722 34.9318 167.206 36.4943 162.708 39.6193C158.257 42.697 154.872 47.2424 152.552 53.2557C150.279 59.2216 149.143 66.5606 149.143 75.2727C149.143 83.9848 150.279 91.3475 152.552 97.3608C154.872 103.327 158.257 107.872 162.708 110.997C167.206 114.075 172.722 115.614 179.256 115.614C185.79 115.614 191.283 114.075 195.734 110.997C200.232 107.872 203.617 103.327 205.89 97.3608C208.21 91.3475 209.37 83.9848 209.37 75.2727ZM394.118 2.54545V148H361.163L308.607 71.5795H307.754V148H268.266V2.54545H301.788L353.493 78.6818H354.629V2.54545H394.118ZM408.82 34.3636V2.54545H535.24V34.3636H491.49V148H452.57V34.3636H408.82ZM569.526 148H526.913L574.924 2.54545H628.901L676.913 148H634.299L602.481 42.6023H601.344L569.526 148ZM561.572 90.6136H641.685V120.159H561.572V90.6136ZM819.881 57.0909H779.825C779.54 53.7765 778.783 50.7699 777.552 48.071C776.368 45.3722 774.711 43.0521 772.58 41.1108C770.497 39.1222 767.964 37.607 764.981 36.5653C761.998 35.4763 758.612 34.9318 754.825 34.9318C748.196 34.9318 742.585 36.5417 737.992 39.7614C733.447 42.9811 729.99 47.5975 727.623 53.6108C725.303 59.6241 724.143 66.8447 724.143 75.2727C724.143 84.1742 725.326 91.6316 727.694 97.6449C730.109 103.611 733.589 108.109 738.134 111.139C742.68 114.122 748.148 115.614 754.54 115.614C758.186 115.614 761.453 115.164 764.342 114.264C767.23 113.317 769.739 111.968 771.87 110.216C774.001 108.464 775.729 106.357 777.055 103.895C778.428 101.385 779.351 98.5682 779.825 95.4432L819.881 95.7273C819.408 101.883 817.68 108.156 814.697 114.548C811.714 120.893 807.476 126.764 801.984 132.162C796.539 137.512 789.791 141.821 781.742 145.088C773.693 148.355 764.342 149.989 753.688 149.989C740.336 149.989 728.357 147.124 717.751 141.395C707.192 135.666 698.835 127.238 692.68 116.111C686.572 104.984 683.518 91.3712 683.518 75.2727C683.518 59.0795 686.643 45.4432 692.893 34.3636C699.143 23.2367 707.571 14.8324 718.177 9.15056C728.783 3.4214 740.62 0.556813 753.688 0.556813C762.874 0.556813 771.326 1.81155 779.043 4.32101C786.761 6.83049 793.532 10.5 799.356 15.3295C805.18 20.1117 809.867 26.0066 813.418 33.0142C816.969 40.0218 819.124 48.0473 819.881 57.0909ZM833.82 34.3636V2.54545H960.24V34.3636H916.49V148H877.57V34.3636H833.82Z"/>
</mask>
<path d="M91.1705 57.0909V58.0909H92.2577L92.167 57.0074L91.1705 57.0909ZM51.1136 57.0909L50.1173 57.1763L50.1957 58.0909H51.1136V57.0909ZM48.8409 48.071L47.9251 48.4727L47.9281 48.4794L47.9311 48.486L48.8409 48.071ZM43.8693 41.1108L43.1788 41.8341L43.1872 41.8422L43.1958 41.85L43.8693 41.1108ZM36.2699 36.5653L35.9269 37.5048L35.9402 37.5094L36.2699 36.5653ZM9.28125 39.7614L8.70721 38.9425L8.70323 38.9453L9.28125 39.7614ZM-1.08807 53.6108L-2.01857 53.2444L-2.02103 53.2508L-1.08807 53.6108ZM-1.01704 97.6449L-1.94757 98.0112L-1.94399 98.0201L-1.01704 97.6449ZM9.4233 111.139L8.86858 111.971L8.87465 111.975L9.4233 111.139ZM35.6307 114.264L35.9281 115.219L35.9352 115.217L35.9422 115.214L35.6307 114.264ZM43.1591 110.216L43.7942 110.988V110.988L43.1591 110.216ZM48.3438 103.895L47.4665 103.415L47.4633 103.421L48.3438 103.895ZM51.1136 95.4432L51.1207 94.4432L50.2547 94.4371L50.1249 95.2934L51.1136 95.4432ZM91.1705 95.7273L92.1675 95.804L92.2498 94.7349L91.1776 94.7273L91.1705 95.7273ZM85.9858 114.548L86.8908 114.974L86.892 114.971L85.9858 114.548ZM73.2727 132.162L73.9736 132.875L73.9737 132.875L73.2727 132.162ZM53.0312 145.088L52.6552 144.161L53.0312 145.088ZM-10.9602 141.395L-11.4371 142.274L-11.4355 142.275L-10.9602 141.395ZM-36.0312 116.111L-36.9079 116.592L-36.9063 116.595L-36.0312 116.111ZM-35.8182 34.3636L-34.9472 34.855L-34.9463 34.8534L-35.8182 34.3636ZM-10.5341 9.15057L-10.0619 10.0321L-10.0588 10.0304L-10.5341 9.15057ZM50.3324 4.32101L50.6416 3.37003L50.6416 3.37002L50.3324 4.32101ZM70.6449 15.3295L70.0065 16.0993L70.0103 16.1024L70.6449 15.3295ZM84.7074 33.0142L83.8154 33.4662L84.7074 33.0142ZM91.1705 56.0909H51.1136V58.0909H91.1705V56.0909ZM52.11 57.0055C51.8173 53.5908 51.0347 50.4708 49.7507 47.656L47.9311 48.486C49.1093 51.0689 49.8418 53.9622 50.1173 57.1763L52.11 57.0055ZM49.7567 47.6694C48.518 44.8452 46.7794 42.4093 44.5428 40.3716L43.1958 41.85C45.2206 43.6948 46.7964 45.8991 47.9251 48.4727L49.7567 47.6694ZM44.5598 40.3874C42.3637 38.2911 39.704 36.7053 36.5996 35.6212L35.9402 37.5094C38.8017 38.5087 41.2083 39.9532 43.1788 41.8341L44.5598 40.3874ZM36.6128 35.626C33.5011 34.4899 29.9965 33.9318 26.1136 33.9318V35.9318C29.8065 35.9318 33.0728 36.4627 35.9269 37.5047L36.6128 35.626ZM26.1136 33.9318C19.3177 33.9318 13.4971 35.5847 8.70722 38.9425L9.85528 40.5802C14.251 37.4986 19.652 35.9318 26.1136 35.9318V33.9318ZM8.70323 38.9453C3.9749 42.2946 0.408443 47.0799 -2.01855 53.2445L-0.157585 53.9771C2.15027 48.1152 5.4967 43.6675 9.85927 40.5774L8.70323 38.9453ZM-2.02103 53.2508C-4.39673 59.4082 -5.56818 66.7575 -5.56818 75.2727H-3.56818C-3.56818 66.9319 -2.41956 59.8399 -0.155102 53.9708L-2.02103 53.2508ZM-5.56818 75.2727C-5.56818 84.2555 -4.37467 91.8463 -1.94753 98.0112L-0.0865593 97.2785C-2.39427 91.417 -3.56818 84.093 -3.56818 75.2727H-5.56818ZM-1.94399 98.0201C0.532417 104.138 4.12791 108.811 8.8686 111.971L9.978 110.307C5.62777 107.407 2.26303 103.083 -0.0900955 97.2697L-1.94399 98.0201ZM8.87465 111.975C13.61 115.083 19.2775 116.614 25.8296 116.614V114.614C19.5975 114.614 14.3275 113.161 9.97195 110.303L8.87465 111.975ZM25.8296 116.614C29.5562 116.614 32.9262 116.154 35.9281 115.219L35.3333 113.309C32.5587 114.174 29.3945 114.614 25.8296 114.614V116.614ZM35.9422 115.214C38.9364 114.233 41.5583 112.827 43.7942 110.988L42.524 109.443C40.4985 111.109 38.1015 112.402 35.3191 113.314L35.9422 115.214ZM43.7942 110.988C46.0267 109.153 47.8377 106.944 49.2242 104.369L47.4633 103.421C46.1983 105.77 44.5529 107.775 42.524 109.443L43.7942 110.988ZM49.221 104.375C50.6559 101.753 51.6132 98.8216 52.1024 95.593L50.1249 95.2934C49.6671 98.3147 48.7778 101.018 47.4665 103.415L49.221 104.375ZM51.1065 96.4432L91.1634 96.7272L91.1776 94.7273L51.1207 94.4432L51.1065 96.4432ZM90.1734 95.6506C89.7104 101.67 88.0189 107.827 85.0796 114.125L86.892 114.971C89.9186 108.486 91.6836 102.095 92.1675 95.804L90.1734 95.6506ZM85.0808 114.123C82.153 120.35 77.988 126.126 72.5718 131.449L73.9737 132.875C79.5423 127.403 83.8527 121.436 86.8908 114.974L85.0808 114.123ZM72.5718 131.449C67.232 136.696 60.5999 140.937 52.6552 144.161L53.4073 146.015C61.5611 142.705 68.4233 138.329 73.9736 132.875L72.5718 131.449ZM52.6552 144.161C44.7491 147.37 35.5301 148.989 24.9773 148.989V150.989C35.7313 150.989 45.2149 149.34 53.4073 146.015L52.6552 144.161ZM24.9773 148.989C11.7727 148.989 -0.040123 146.157 -10.485 140.515L-11.4355 142.275C-0.668213 148.091 11.4773 150.989 24.9773 150.989V148.989ZM-10.4833 140.516C-20.8644 134.883 -29.0876 126.597 -35.1562 115.627L-36.9063 116.595C-30.6643 127.878 -22.1735 136.448 -11.4371 142.274L-10.4833 140.516ZM-35.1546 115.63C-41.1628 104.685 -44.1932 91.2472 -44.1932 75.2727H-46.1932C-46.1932 91.4952 -43.1157 105.283 -36.9079 116.592L-35.1546 115.63ZM-44.1932 75.2727C-44.1932 59.2056 -41.0926 45.749 -34.9472 34.855L-36.6892 33.8723C-43.0438 45.1374 -46.1932 58.9535 -46.1932 75.2727H-44.1932ZM-34.9463 34.8534C-28.7836 23.8819 -20.4898 15.6184 -10.0619 10.032L-11.0063 8.26908C-21.7905 14.0463 -30.3528 22.5916 -36.6901 33.8739L-34.9463 34.8534ZM-10.0588 10.0304C0.389145 4.38663 12.0607 1.55682 24.9773 1.55682V-0.443184C11.7575 -0.443184 -0.245209 2.45615 -11.0094 8.27072L-10.0588 10.0304ZM24.9773 1.55682C34.0715 1.55682 42.4174 2.79897 50.0232 5.272L50.6416 3.37002C42.8118 0.82412 34.2542 -0.443184 24.9773 -0.443184V1.55682ZM50.0232 5.272C57.6296 7.74527 64.2868 11.3561 70.0066 16.0993L71.2832 14.5598C65.3552 9.64387 58.4708 5.91571 50.6416 3.37003L50.0232 5.272ZM70.0103 16.1024C75.7225 20.7929 80.3242 26.5769 83.8154 33.4662L85.5994 32.5622C81.9883 25.4363 77.215 19.4306 71.2795 14.5567L70.0103 16.1024ZM83.8154 33.4662C87.2999 40.3424 89.4255 48.2395 90.174 57.1744L92.167 57.0074C91.4003 47.8551 89.2171 39.7011 85.5994 32.5622L83.8154 33.4662ZM240.549 116.253L241.418 116.747L241.419 116.745L240.549 116.253ZM215.052 141.466L215.521 142.349L215.524 142.348L215.052 141.466ZM143.319 141.395L142.842 142.274L142.847 142.276L143.319 141.395ZM117.893 116.111L117.021 116.601L117.023 116.605L117.893 116.111ZM117.893 34.3636L117.022 33.8711L117.022 33.8723L117.893 34.3636ZM143.319 9.15057L143.789 10.0329L143.791 10.0322L143.319 9.15057ZM215.052 9.15057L214.58 10.0322L214.583 10.0338L215.052 9.15057ZM240.549 34.3636L239.679 34.8562L239.68 34.8578L240.549 34.3636ZM205.89 53.2557L204.954 53.6092L204.958 53.6181L205.89 53.2557ZM195.734 39.6193L195.159 40.4378L195.169 40.4446L195.734 39.6193ZM162.708 39.6193L163.277 40.4418L163.279 40.4406L162.708 39.6193ZM152.552 53.2557L151.619 52.8957L151.617 52.8997L152.552 53.2557ZM152.552 97.3608L151.616 97.7144L151.62 97.7232L152.552 97.3608ZM162.708 110.997L162.133 111.816L162.143 111.822L162.708 110.997ZM195.734 110.997L196.302 111.82L196.304 111.818L195.734 110.997ZM205.89 97.3608L204.957 97.0008L204.955 97.0048L205.89 97.3608ZM248.995 75.2727C248.995 91.3385 245.871 104.819 239.679 115.76L241.419 116.745C247.821 105.433 250.995 91.5933 250.995 75.2727H248.995ZM239.68 115.759C233.471 126.683 225.106 134.949 214.58 140.584L215.524 142.348C226.399 136.525 235.033 127.982 241.418 116.747L239.68 115.759ZM214.583 140.583C204.039 146.181 192.27 148.989 179.256 148.989V150.989C192.568 150.989 204.663 148.114 215.521 142.349L214.583 140.583ZM179.256 148.989C166.148 148.989 154.333 146.158 143.791 140.513L142.847 142.276C153.706 148.09 165.85 150.989 179.256 150.989V148.989ZM143.796 140.516C133.315 134.833 124.972 126.542 118.762 115.617L117.023 116.605C123.408 127.838 132.016 136.404 142.842 142.274L143.796 140.516ZM118.765 115.621C112.618 104.678 109.518 91.2438 109.518 75.2727H107.518C107.518 91.4987 110.668 105.29 117.021 116.601L118.765 115.621ZM109.518 75.2727C109.518 59.2056 112.618 45.749 118.764 34.855L117.022 33.8723C110.667 45.1374 107.518 58.9535 107.518 75.2727H109.518ZM118.763 34.8562C124.973 23.8843 133.314 15.62 143.789 10.0329L142.848 8.26821C132.017 14.0447 123.408 22.5891 117.022 33.8711L118.763 34.8562ZM143.791 10.0322C154.333 4.38774 166.148 1.55682 179.256 1.55682V-0.443184C165.85 -0.443184 153.706 2.45505 142.847 8.26897L143.791 10.0322ZM179.256 1.55682C192.269 1.55682 204.036 4.38718 214.58 10.0322L215.524 8.26897C204.666 2.45561 192.57 -0.443184 179.256 -0.443184V1.55682ZM214.583 10.0338C225.106 15.6212 233.47 23.8855 239.679 34.8562L241.419 33.8711C235.034 22.588 226.399 14.0435 215.521 8.26735L214.583 10.0338ZM239.68 34.8578C245.871 45.7512 248.995 59.2068 248.995 75.2727H250.995C250.995 58.9523 247.822 45.1352 241.418 33.8695L239.68 34.8578ZM210.37 75.2727C210.37 66.4785 209.2 59.0082 206.822 52.8932L204.958 53.6181C207.22 59.435 208.37 66.6427 208.37 75.2727H210.37ZM206.825 52.9021C204.494 46.7326 200.994 42.0069 196.298 38.794L195.169 40.4446C199.469 43.3871 202.741 47.7522 204.954 53.6092L206.825 52.9021ZM196.308 38.8009C191.658 35.5356 185.954 33.9318 179.256 33.9318V35.9318C185.627 35.9318 190.908 37.4531 195.159 40.4377L196.308 38.8009ZM179.256 33.9318C172.559 33.9318 166.833 35.5357 162.138 38.7981L163.279 40.4406C167.579 37.4529 172.886 35.9318 179.256 35.9318V33.9318ZM162.139 38.7968C157.494 42.009 153.997 46.7317 151.619 52.8957L153.485 53.6156C155.747 47.7531 159.021 43.3849 163.277 40.4418L162.139 38.7968ZM151.617 52.8997C149.289 59.0125 148.143 66.4804 148.143 75.2727H150.143C150.143 66.6408 151.27 59.4307 153.486 53.6117L151.617 52.8997ZM148.143 75.2727C148.143 84.0655 149.289 91.5558 151.616 97.7143L153.487 97.0072C151.269 91.1393 150.143 83.9042 150.143 75.2727H148.143ZM151.62 97.7232C153.999 103.84 157.494 108.558 162.133 111.816L163.283 110.179C159.02 107.186 155.745 102.814 153.484 96.9984L151.62 97.7232ZM162.143 111.822C166.839 115.035 172.562 116.614 179.256 116.614V114.614C172.883 114.614 167.574 113.115 163.273 110.172L162.143 111.822ZM179.256 116.614C185.951 116.614 191.652 115.035 196.302 111.82L195.165 110.175C190.913 113.115 185.63 114.614 179.256 114.614V116.614ZM196.304 111.818C200.994 108.56 204.492 103.839 206.824 97.7168L204.955 97.0048C202.742 102.815 199.47 107.184 195.163 110.176L196.304 111.818ZM206.823 97.7208C209.2 91.5601 210.37 84.0674 210.37 75.2727H208.37C208.37 83.9023 207.22 91.135 204.957 97.0008L206.823 97.7208ZM394.118 2.54545H395.118V1.54545H394.118V2.54545ZM394.118 148V149H395.118V148H394.118ZM361.163 148L360.339 148.567L360.637 149H361.163V148ZM308.607 71.5795L309.43 71.0129L309.132 70.5795H308.607V71.5795ZM307.754 71.5795V70.5795H306.754V71.5795H307.754ZM307.754 148V149H308.754V148H307.754ZM268.266 148H267.266V149H268.266V148ZM268.266 2.54545V1.54545H267.266V2.54545H268.266ZM301.788 2.54545L302.616 1.98365L302.318 1.54545H301.788V2.54545ZM353.493 78.6818L352.666 79.2436L352.963 79.6818H353.493V78.6818ZM354.629 78.6818V79.6818H355.629V78.6818H354.629ZM354.629 2.54545V1.54545H353.629V2.54545H354.629ZM393.118 2.54545V148H395.118V2.54545H393.118ZM394.118 147H361.163V149H394.118V147ZM361.987 147.433L309.43 71.0129L307.783 72.1462L360.339 148.567L361.987 147.433ZM308.607 70.5795H307.754V72.5795H308.607V70.5795ZM306.754 71.5795V148H308.754V71.5795H306.754ZM307.754 147H268.266V149H307.754V147ZM269.266 148V2.54545H267.266V148H269.266ZM268.266 3.54545H301.788V1.54545H268.266V3.54545ZM300.961 3.10725L352.666 79.2436L354.32 78.12L302.616 1.98365L300.961 3.10725ZM353.493 79.6818H354.629V77.6818H353.493V79.6818ZM355.629 78.6818V2.54545H353.629V78.6818H355.629ZM354.629 3.54545H394.118V1.54545H354.629V3.54545ZM408.82 34.3636H407.82V35.3636H408.82V34.3636ZM408.82 2.54545V1.54545H407.82V2.54545H408.82ZM535.24 2.54545H536.24V1.54545H535.24V2.54545ZM535.24 34.3636V35.3636H536.24V34.3636H535.24ZM491.49 34.3636V33.3636H490.49V34.3636H491.49ZM491.49 148V149H492.49V148H491.49ZM452.57 148H451.57V149H452.57V148ZM452.57 34.3636H453.57V33.3636H452.57V34.3636ZM409.82 34.3636V2.54545H407.82V34.3636H409.82ZM408.82 3.54545H535.24V1.54545H408.82V3.54545ZM534.24 2.54545V34.3636H536.24V2.54545H534.24ZM535.24 33.3636H491.49V35.3636H535.24V33.3636ZM490.49 34.3636V148H492.49V34.3636H490.49ZM491.49 147H452.57V149H491.49V147ZM453.57 148V34.3636H451.57V148H453.57ZM452.57 33.3636H408.82V35.3636H452.57V33.3636ZM569.526 148V149H570.269L570.484 148.289L569.526 148ZM526.913 148L525.963 147.687L525.529 149H526.913V148ZM574.924 2.54545V1.54545H574.201L573.974 2.232L574.924 2.54545ZM628.901 2.54545L629.851 2.232L629.624 1.54545H628.901V2.54545ZM676.913 148V149H678.296L677.862 147.687L676.913 148ZM634.299 148L633.342 148.289L633.556 149H634.299V148ZM602.481 42.6023L603.438 42.3133L603.224 41.6023H602.481V42.6023ZM601.344 42.6023V41.6023H600.602L600.387 42.3133L601.344 42.6023ZM561.572 90.6136V89.6136H560.572V90.6136H561.572ZM641.685 90.6136H642.685V89.6136H641.685V90.6136ZM641.685 120.159V121.159H642.685V120.159H641.685ZM561.572 120.159H560.572V121.159H561.572V120.159ZM569.526 147H526.913V149H569.526V147ZM527.862 148.313L575.874 2.85889L573.974 2.232L525.963 147.687L527.862 148.313ZM574.924 3.54545H628.901V1.54545H574.924V3.54545ZM627.952 2.85889L675.963 148.313L677.862 147.687L629.851 2.232L627.952 2.85889ZM676.913 147H634.299V149H676.913V147ZM635.256 147.711L603.438 42.3133L601.523 42.8913L633.342 148.289L635.256 147.711ZM602.481 41.6023H601.344V43.6023H602.481V41.6023ZM600.387 42.3133L568.569 147.711L570.484 148.289L602.302 42.8913L600.387 42.3133ZM561.572 91.6136H641.685V89.6136H561.572V91.6136ZM640.685 90.6136V120.159H642.685V90.6136H640.685ZM641.685 119.159H561.572V121.159H641.685V119.159ZM562.572 120.159V90.6136H560.572V120.159H562.572ZM819.881 57.0909V58.0909H820.969L820.878 57.0074L819.881 57.0909ZM779.825 57.0909L778.828 57.1763L778.907 58.0909H779.825V57.0909ZM777.552 48.071L776.636 48.4727L776.639 48.4794L776.642 48.486L777.552 48.071ZM772.58 41.1108L771.89 41.8341L771.898 41.8422L771.907 41.85L772.58 41.1108ZM764.981 36.5653L764.638 37.5048L764.651 37.5094L764.981 36.5653ZM737.992 39.7614L737.418 38.9425L737.414 38.9453L737.992 39.7614ZM727.623 53.6108L726.692 53.2444L726.69 53.2508L727.623 53.6108ZM727.694 97.6449L726.763 98.0112L726.767 98.0201L727.694 97.6449ZM738.134 111.139L737.58 111.971L737.586 111.975L738.134 111.139ZM764.342 114.264L764.639 115.219L764.646 115.217L764.653 115.214L764.342 114.264ZM771.87 110.216L772.505 110.988V110.988L771.87 110.216ZM777.055 103.895L776.177 103.415L776.174 103.421L777.055 103.895ZM779.825 95.4432L779.832 94.4432L778.966 94.4371L778.836 95.2934L779.825 95.4432ZM819.881 95.7273L820.878 95.804L820.961 94.7349L819.888 94.7273L819.881 95.7273ZM814.697 114.548L815.602 114.974L815.603 114.971L814.697 114.548ZM801.984 132.162L802.685 132.875V132.875L801.984 132.162ZM781.742 145.088L781.366 144.161L781.742 145.088ZM717.751 141.395L717.274 142.274L717.275 142.275L717.751 141.395ZM692.68 116.111L691.803 116.592L691.805 116.595L692.68 116.111ZM692.893 34.3636L693.764 34.855L693.765 34.8534L692.893 34.3636ZM718.177 9.15057L718.649 10.0321L718.652 10.0304L718.177 9.15057ZM779.043 4.32101L779.353 3.37003V3.37002L779.043 4.32101ZM799.356 15.3295L798.717 16.0993L798.721 16.1024L799.356 15.3295ZM813.418 33.0142L812.526 33.4662L813.418 33.0142ZM819.881 56.0909H779.825V58.0909H819.881V56.0909ZM780.821 57.0055C780.528 53.5908 779.746 50.4708 778.462 47.656L776.642 48.486C777.82 51.0689 778.553 53.9622 778.828 57.1763L780.821 57.0055ZM778.468 47.6694C777.229 44.8452 775.49 42.4093 773.254 40.3716L771.907 41.85C773.932 43.6948 775.507 45.8991 776.636 48.4727L778.468 47.6694ZM773.271 40.3874C771.075 38.2911 768.415 36.7053 765.31 35.6212L764.651 37.5094C767.513 38.5087 769.919 39.9532 771.89 41.8341L773.271 40.3874ZM765.324 35.626C762.212 34.4899 758.707 33.9318 754.825 33.9318V35.9318C758.517 35.9318 761.784 36.4627 764.638 37.5047L765.324 35.626ZM754.825 33.9318C748.029 33.9318 742.208 35.5847 737.418 38.9425L738.566 40.5802C742.962 37.4986 748.363 35.9318 754.825 35.9318V33.9318ZM737.414 38.9453C732.686 42.2946 729.119 47.0799 726.692 53.2445L728.553 53.9771C730.861 48.1152 734.208 43.6675 738.57 40.5774L737.414 38.9453ZM726.69 53.2508C724.314 59.4082 723.143 66.7575 723.143 75.2727H725.143C725.143 66.9319 726.291 59.8399 728.556 53.9708L726.69 53.2508ZM723.143 75.2727C723.143 84.2555 724.336 91.8463 726.763 98.0112L728.624 97.2785C726.317 91.417 725.143 84.093 725.143 75.2727H723.143ZM726.767 98.0201C729.243 104.138 732.839 108.811 737.58 111.971L738.689 110.307C734.339 107.407 730.974 103.083 728.621 97.2697L726.767 98.0201ZM737.586 111.975C742.321 115.083 747.988 116.614 754.54 116.614V114.614C748.308 114.614 743.038 113.161 738.683 110.303L737.586 111.975ZM754.54 116.614C758.267 116.614 761.637 116.154 764.639 115.219L764.044 113.309C761.27 114.174 758.105 114.614 754.54 114.614V116.614ZM764.653 115.214C767.647 114.233 770.269 112.827 772.505 110.988L771.235 109.443C769.209 111.109 766.812 112.402 764.03 113.314L764.653 115.214ZM772.505 110.988C774.738 109.153 776.549 106.944 777.935 104.369L776.174 103.421C774.909 105.77 773.264 107.775 771.235 109.443L772.505 110.988ZM777.932 104.375C779.367 101.753 780.324 98.8216 780.813 95.593L778.836 95.2934C778.378 98.3147 777.489 101.018 776.177 103.415L777.932 104.375ZM779.818 96.4432L819.874 96.7272L819.888 94.7273L779.832 94.4432L779.818 96.4432ZM818.884 95.6506C818.421 101.67 816.73 107.827 813.791 114.125L815.603 114.971C818.63 108.486 820.395 102.095 820.878 95.804L818.884 95.6506ZM813.792 114.123C810.864 120.35 806.699 126.126 801.283 131.449L802.685 132.875C808.253 127.403 812.564 121.436 815.602 114.974L813.792 114.123ZM801.283 131.449C795.943 136.696 789.311 140.937 781.366 144.161L782.118 146.015C790.272 142.705 797.134 138.329 802.685 132.875L801.283 131.449ZM781.366 144.161C773.46 147.37 764.241 148.989 753.688 148.989V150.989C764.442 150.989 773.926 149.34 782.118 146.015L781.366 144.161ZM753.688 148.989C740.484 148.989 728.671 146.157 718.226 140.515L717.275 142.275C728.043 148.091 740.188 150.989 753.688 150.989V148.989ZM718.228 140.516C707.847 134.883 699.623 126.597 693.555 115.627L691.805 116.595C698.047 127.878 706.537 136.448 717.274 142.274L718.228 140.516ZM693.556 115.63C687.548 104.685 684.518 91.2472 684.518 75.2727H682.518C682.518 91.4952 685.595 105.283 691.803 116.592L693.556 115.63ZM684.518 75.2727C684.518 59.2056 687.618 45.749 693.764 34.855L692.022 33.8723C685.667 45.1374 682.518 58.9535 682.518 75.2727H684.518ZM693.765 34.8534C699.927 23.8819 708.221 15.6184 718.649 10.032L717.705 8.26908C706.92 14.0463 698.358 22.5916 692.021 33.8739L693.765 34.8534ZM718.652 10.0304C729.1 4.38663 740.772 1.55682 753.688 1.55682V-0.443184C740.468 -0.443184 728.466 2.45615 717.702 8.27072L718.652 10.0304ZM753.688 1.55682C762.782 1.55682 771.128 2.79897 778.734 5.272L779.353 3.37002C771.523 0.82412 762.965 -0.443184 753.688 -0.443184V1.55682ZM778.734 5.272C786.341 7.74527 792.998 11.3561 798.717 16.0993L799.994 14.5598C794.066 9.64387 787.182 5.91571 779.353 3.37003L778.734 5.272ZM798.721 16.1024C804.433 20.7929 809.035 26.5769 812.526 33.4662L814.31 32.5622C810.699 25.4363 805.926 19.4306 799.99 14.5567L798.721 16.1024ZM812.526 33.4662C816.011 40.3424 818.136 48.2395 818.885 57.1744L820.878 57.0074C820.111 47.8551 817.928 39.7011 814.31 32.5622L812.526 33.4662ZM833.82 34.3636H832.82V35.3636H833.82V34.3636ZM833.82 2.54545V1.54545H832.82V2.54545H833.82ZM960.24 2.54545H961.24V1.54545H960.24V2.54545ZM960.24 34.3636V35.3636H961.24V34.3636H960.24ZM916.49 34.3636V33.3636H915.49V34.3636H916.49ZM916.49 148V149H917.49V148H916.49ZM877.57 148H876.57V149H877.57V148ZM877.57 34.3636H878.57V33.3636H877.57V34.3636ZM834.82 34.3636V2.54545H832.82V34.3636H834.82ZM833.82 3.54545H960.24V1.54545H833.82V3.54545ZM959.24 2.54545V34.3636H961.24V2.54545H959.24ZM960.24 33.3636H916.49V35.3636H960.24V33.3636ZM915.49 34.3636V148H917.49V34.3636H915.49ZM916.49 147H877.57V149H916.49V147ZM878.57 148V34.3636H876.57V148H878.57ZM877.57 33.3636H833.82V35.3636H877.57V33.3636Z" fill="white" mask="url(#path-1-outside-1_14065_2723)"/>
</g>
</svg>
