<svg width="21" height="20" viewBox="0 0 21 20" fill="none" xmlns="http://www.w3.org/2000/svg">
<path d="M19.6673 10.0007C19.6673 4.93929 15.562 0.833984 10.5007 0.833984C5.43929 0.833984 1.33398 4.93929 1.33398 10.0007C1.33398 14.575 4.68555 18.3688 9.06836 19.0563V12.6504H6.74089V10.0007H9.06836V7.98112C9.06836 5.68408 10.438 4.41471 12.5309 4.41471C13.5335 4.41471 14.5827 4.59375 14.5827 4.59375V6.84961H13.4261C12.2874 6.84961 11.9329 7.5568 11.9329 8.2819V10.0007H14.4753L14.0688 12.6504H11.9329V19.0563C16.3158 18.3688 19.6673 14.5768 19.6673 10.0007Z" fill="#1977F3"/>
<path d="M14.0682 12.6497L14.4746 10H11.9323V8.28125C11.9323 7.55615 12.2868 6.84896 13.4255 6.84896H14.582V4.5931C14.582 4.5931 13.5329 4.41406 12.5303 4.41406C10.4373 4.41406 9.06771 5.68164 9.06771 7.98047V10H6.74023V12.6497H9.06771V19.0557C9.53499 19.1291 10.013 19.1667 10.5 19.1667C10.987 19.1667 11.465 19.1273 11.9323 19.0557V12.6497H14.0682Z" fill="#FEFEFE"/>
</svg>
