<svg width="21" height="20" viewBox="0 0 21 20" fill="none" xmlns="http://www.w3.org/2000/svg">
<path d="M13.8327 1.66602H7.16602C5.7853 1.66602 4.66602 2.7853 4.66602 4.16602V15.8327C4.66602 17.2134 5.7853 18.3327 7.16602 18.3327H13.8327C15.2134 18.3327 16.3327 17.2134 16.3327 15.8327V4.16602C16.3327 2.7853 15.2134 1.66602 13.8327 1.66602Z" stroke="#1F2A37" stroke-width="2" stroke-linejoin="round"/>
<path d="M9.66602 15.209C9.32085 15.209 9.04102 15.4888 9.04102 15.834C9.04102 16.1792 9.32085 16.459 9.66602 16.459V15.209ZM11.3327 16.459C11.6778 16.459 11.9577 16.1792 11.9577 15.834C11.9577 15.4888 11.6778 15.209 11.3327 15.209V16.459ZM9.66602 16.459H11.3327V15.209H9.66602V16.459Z" fill="#1F2A37"/>
</svg>
