<svg width="46" height="46" viewBox="0 0 46 46" fill="none" xmlns="http://www.w3.org/2000/svg">
<circle cx="23" cy="23" r="23" fill="#E5E7EB"/>
<g clip-path="url(#clip0_14130_1296)">
<path d="M12 26.1551C12.0323 25.9662 12.0569 25.7763 12.0974 25.5896C12.3468 24.4401 12.9621 23.5315 13.9522 22.8799C14.102 22.7809 14.1414 22.7024 14.0944 22.5195C13.8116 21.4274 14.0484 20.4474 14.8618 19.6535C15.673 18.8617 16.6603 18.6312 17.7657 18.9207C17.8248 18.9364 17.8839 18.9516 17.9079 18.9581C18.2071 18.5284 18.4566 18.0852 18.7864 17.7107C20.2228 16.0785 22.0475 15.3549 24.2103 15.6991C26.6137 16.0817 28.1923 17.4958 28.9783 19.7687C29.0877 20.0848 29.1353 20.4236 29.1889 20.7553C29.2097 20.8836 29.2611 20.9258 29.3781 20.9517C31.7816 21.494 33.4663 23.6776 33.3673 26.1172C33.2787 28.296 31.8155 30.1868 29.7025 30.8119C29.3218 30.9245 28.911 30.9813 28.5128 30.9878C27.1361 31.0089 25.7582 30.9959 24.3809 30.9959C24.2989 30.9959 24.2174 30.9959 24.1238 30.9959C24.1238 29.4633 24.1238 27.9529 24.1238 26.4225C24.1944 26.4187 24.2617 26.4116 24.3284 26.4116C24.7042 26.4105 25.08 26.4068 25.4552 26.4127C25.6942 26.4165 25.9185 26.4019 26.0465 26.1594C26.175 25.9165 26.0563 25.7265 25.9163 25.536C25.401 24.8352 24.8891 24.1317 24.376 23.4292C23.9608 22.8605 23.5462 22.2911 23.1294 21.7235C22.8505 21.343 22.5152 21.3425 22.2368 21.7229C21.2992 23.0049 20.3639 24.2881 19.4275 25.5706C19.4072 25.5988 19.387 25.6264 19.3673 25.6545C19.2563 25.8142 19.2251 25.983 19.3192 26.16C19.4127 26.3348 19.5664 26.4116 19.7644 26.4111C20.2507 26.41 20.7364 26.4105 21.2396 26.4105C21.2396 27.9421 21.2396 29.4573 21.2396 30.9959C21.1505 30.9959 21.069 30.9959 20.9869 30.9959C19.4707 30.9959 17.9539 30.9899 16.4377 30.9975C14.9231 31.0051 13.7728 30.3303 12.8943 29.1548C12.4206 28.519 12.1417 27.7976 12.0394 27.0107C12.0345 26.9723 12.0137 26.936 12 26.8987C12 26.6508 12 26.403 12 26.1551Z" fill="#6B7280"/>
</g>
<defs>
<clipPath id="clip0_14130_1296">
<rect width="22" height="16" fill="white" transform="translate(12 15)"/>
</clipPath>
</defs>
</svg>
